<?xml version="1.0" standalone="no"?>
<!DOCTYPE svg PUBLIC "-//W3C//DTD SVG 20010904//EN"
 "http://www.w3.org/TR/2001/REC-SVG-20010904/DTD/svg10.dtd">
<svg version="1.0" xmlns="http://www.w3.org/2000/svg"
 width="512.000000pt" height="512.000000pt" viewBox="0 0 512.000000 512.000000"
 preserveAspectRatio="xMidYMid meet">
<metadata>
Created by potrace 1.15, written by Peter Selinger 2001-2017
</metadata>
<g transform="translate(0.000000,512.000000) scale(0.100000,-0.100000)"
fill="#000000" stroke="none">
<path d="M2004 5108 c-16 -4 -34 -6 -41 -3 -7 2 -15 0 -18 -6 -4 -5 -10 -7
-14 -5 -4 3 -26 1 -48 -4 -23 -6 -63 -12 -90 -15 -26 -4 -66 -10 -88 -15 -39
-9 -118 -21 -161 -24 -11 -2 -24 -5 -30 -8 -5 -3 -20 -6 -34 -6 -14 0 -46 -5
-72 -11 -27 -6 -51 -10 -55 -9 -5 1 -19 -2 -33 -5 -14 -4 -45 -9 -70 -12 -25
-2 -47 -5 -50 -6 -9 -4 -25 -7 -42 -8 -17 -1 -18 -122 -18 -2396 l0 -2395 28
-6 c15 -3 47 -12 72 -19 25 -7 59 -16 75 -20 17 -4 39 -9 50 -11 23 -6 39 -9
145 -30 106 -22 123 -25 140 -26 8 0 35 -5 60 -10 25 -5 63 -11 85 -13 22 -2
57 -7 77 -10 20 -4 54 -8 75 -10 21 -2 72 -8 113 -12 142 -15 885 -8 885 8 0
1 11 3 25 4 59 8 286 77 374 114 145 63 332 172 376 221 3 3 34 30 70 60 36
30 69 62 74 70 5 8 19 24 30 35 12 12 41 48 66 81 25 32 47 61 50 64 15 14
112 196 145 270 38 88 81 206 91 250 2 14 7 33 10 42 3 9 7 27 9 40 3 13 8 37
11 53 8 32 12 60 19 115 2 20 8 63 13 95 10 63 9 545 -1 562 -3 5 -8 31 -11
59 -3 27 -8 67 -12 89 -3 22 -8 49 -9 60 -2 11 -4 22 -5 25 -1 3 -2 8 -1 12 0
4 -6 25 -14 48 -8 23 -14 44 -13 48 2 8 -62 210 -73 232 -4 8 -28 59 -53 112
-46 101 -175 306 -199 316 -4 2 -21 23 -37 47 -48 70 -238 208 -395 287 -53
27 -209 83 -260 93 -16 3 -43 8 -60 11 -16 3 -46 9 -65 13 -50 12 -65 13 -275
13 -183 0 -264 -4 -302 -16 -10 -3 -37 -8 -59 -10 -23 -3 -53 -10 -68 -16 -15
-5 -37 -12 -49 -14 -27 -6 -148 -48 -199 -70 l-38 -16 0 849 0 850 -39 -2
c-21 0 -51 -5 -67 -9z m716 -2369 c120 -17 122 -17 178 -38 124 -46 224 -128
288 -238 54 -94 98 -216 109 -311 3 -24 8 -48 10 -52 22 -36 22 -454 0 -550
-5 -19 -9 -44 -11 -55 -1 -11 -3 -20 -4 -20 -1 0 -3 -9 -5 -20 -5 -26 -13 -60
-15 -60 -1 0 -3 -10 -6 -23 -18 -97 -117 -265 -213 -361 -101 -102 -223 -160
-371 -179 -109 -14 -434 -5 -537 14 l-33 6 0 878 c0 756 2 879 15 890 8 6 19
9 25 5 5 -3 10 -1 10 5 0 6 21 20 46 30 57 25 195 61 206 54 4 -3 8 -1 8 4 0
5 12 10 28 10 15 1 59 6 97 11 96 12 91 12 175 0z"/>
</g>
</svg>
